<svg width="427" height="42" viewBox="0 0 427 42" fill="none" xmlns="http://www.w3.org/2000/svg">
<path d="M153.898 41.2925H144.373V18.2684C144.373 15.0978 143.875 12.7577 142.809 11.3234C141.814 9.88908 140.392 9.13418 138.544 9.13418C136.624 9.13418 134.847 9.88908 133.212 11.4743C131.577 13.0596 130.369 15.0223 129.658 17.5135V41.368H120.133V18.2684C120.133 15.0978 119.635 12.7577 118.569 11.3234C117.574 9.88908 116.152 9.13418 114.304 9.13418C112.456 9.13418 110.679 9.88908 108.973 11.3989C107.267 12.9086 106.058 14.9468 105.347 17.3625V41.2925H95.7508V0.150978H104.494V8.15283C105.845 5.5862 107.764 3.62348 110.181 2.18918C112.598 0.83038 115.299 0.0754891 118.427 0.0754891C121.554 0.0754891 123.971 0.905869 125.677 2.49114C127.383 4.07641 128.45 6.11462 128.947 8.45478C130.44 5.73717 132.43 3.62348 134.705 2.18918C137.051 0.754891 139.681 0 142.667 0C144.941 0 146.861 0.452935 148.282 1.3588C149.775 2.26467 150.912 3.4725 151.694 4.90679C152.476 6.34109 153.045 8.00185 153.4 9.88908C153.685 11.7763 153.898 13.6635 153.898 15.5508V41.2925Z" fill="white"/>
<path d="M224.201 41.2925H214.817V18.2684C214.817 15.0978 214.32 12.7577 213.253 11.3234C212.258 9.88908 210.837 9.13418 208.988 9.13418C207.069 9.13418 205.292 9.88908 203.657 11.4743C202.022 12.9841 200.814 15.0223 200.103 17.5135V41.368H190.506V18.2684C190.506 15.0978 190.009 12.7577 188.943 11.3234C187.947 9.88908 186.526 9.13418 184.678 9.13418C182.829 9.13418 181.052 9.88908 179.346 11.3989C177.64 12.9086 176.432 14.9468 175.721 17.3625V41.2925H166.124V0.150978H174.797V8.15283C176.147 5.5862 178.067 3.62348 180.484 2.18918C182.9 0.83038 185.602 0.0754891 188.729 0.0754891C191.857 0.0754891 194.274 0.905869 195.98 2.49114C197.686 4.07641 198.752 6.11462 199.25 8.45478C200.743 5.73717 202.733 3.62348 205.008 2.18918C207.353 0.754891 209.984 0 212.969 0C215.244 0 217.163 0.452935 218.585 1.3588C220.078 2.26467 221.215 3.4725 221.997 4.90679C222.779 6.34109 223.348 8.00185 223.703 9.88908C223.987 11.7763 224.201 13.6635 224.201 15.5508V41.2925Z" fill="white"/>
<path d="M308.507 41.2925H318.103V15.7017C318.103 13.8145 317.89 11.9272 317.606 10.04C317.25 8.15279 316.681 6.49203 315.9 5.05773C315.118 3.62344 313.98 2.41562 312.487 1.50975C311.066 0.603876 309.146 0.150941 306.801 0.150941C303.46 0.150941 300.545 0.830344 297.915 2.26464C295.356 3.62344 293.295 5.66165 291.944 8.15279V0.150941H283.343V41.368H292.868V17.438C293.224 16.2301 293.721 15.0978 294.432 14.1164C295.143 13.0596 295.996 12.2292 296.849 11.4743C297.773 10.7194 298.697 10.1155 299.692 9.73806C300.687 9.36062 301.683 9.13415 302.607 9.13415C304.455 9.13415 305.877 9.88904 306.943 11.3233C308.009 12.7576 308.507 15.0978 308.507 18.2683V41.2925Z" fill="white"/>
<path d="M411.437 41.2925C408.309 41.2925 405.253 40.7641 402.267 39.7072C399.282 38.6504 396.723 37.1406 394.59 35.1779L398.144 28.8368C400.419 30.5731 402.623 31.8564 404.826 32.7622C406.959 33.6681 409.162 34.121 411.295 34.121C413.214 34.121 414.707 33.7436 415.773 32.9887C416.84 32.2338 417.408 31.177 417.408 29.7427C417.408 28.3084 416.768 27.327 415.489 26.6476C414.209 25.9682 412.077 25.2133 409.233 24.383C406.817 23.7036 404.755 23.0241 403.049 22.3447C401.343 21.6653 399.921 20.9105 398.926 20.0801C397.86 19.2497 397.149 18.2683 396.651 17.2115C396.154 16.1546 395.941 14.7958 395.941 13.286C395.941 11.2478 396.296 9.4361 397.078 7.85083C397.789 6.26556 398.855 4.83127 400.206 3.69893C401.556 2.56659 403.12 1.66072 404.897 1.05681C406.674 0.452898 408.594 0.150941 410.726 0.150941C413.499 0.150941 416.129 0.603876 418.617 1.43426C421.033 2.26464 423.308 3.69893 425.37 5.58616L421.531 11.7008C419.612 10.191 417.764 9.05866 415.986 8.37926C414.209 7.69985 412.432 7.32241 410.655 7.32241C409.02 7.32241 407.67 7.69985 406.603 8.37926C405.537 9.05866 404.968 10.191 404.968 11.7763C404.968 12.4557 405.111 13.0596 405.395 13.5125C405.679 13.9655 406.106 14.3429 406.674 14.7203C407.187 15.0607 407.873 15.3396 408.681 15.6679L408.949 15.7772L409.112 15.8305C410.006 16.1229 411.093 16.4785 412.432 16.834C414.991 17.5134 417.195 18.2683 419.043 18.9477C420.891 19.6271 422.384 20.4575 423.521 21.3634C424.659 22.2693 425.512 23.3261 426.08 24.5339C426.649 25.7418 426.862 27.176 426.862 28.8368C426.862 32.7622 425.512 35.7818 422.811 38.0465C419.754 40.1602 416.058 41.2925 411.437 41.2925Z" fill="white"/>
<path d="M19.4061 8.83219C14.1458 8.83219 9.88074 14.1919 9.88074 20.7595L0.284338 23.8545C0.142169 22.8732 0 21.8163 0 20.7595C0 9.36061 8.67231 0.150941 19.4061 0.150941C27.1543 0.150941 33.8362 5.05773 36.9639 12.1537L27.723 15.0978C26.088 11.3988 23.0314 8.83219 19.4061 8.83219Z" fill="white"/>
<path d="M19.4061 32.6868C16.3494 32.6868 13.6482 30.875 11.8711 28.0064L2.63013 30.9505C5.9711 37.1406 12.1554 41.2925 19.335 41.2925C27.5808 41.2925 34.6181 35.7818 37.3904 28.0064H26.8699C25.0928 30.7995 22.4627 32.6868 19.4061 32.6868Z" fill="white"/>
<path fill-rule="evenodd" clip-rule="evenodd" d="M47.2712 20.7595C47.2712 9.36061 55.9435 0.150941 66.6773 0.150941C77.3399 0.150941 86.0122 9.36061 86.0833 20.7595C86.0833 32.1583 77.411 41.368 66.6773 41.368C55.9435 41.368 47.2712 32.1583 47.2712 20.7595ZM57.1519 20.7595C57.1519 27.327 61.417 32.6868 66.6773 32.6868C71.9375 32.6868 76.2026 27.327 76.2026 20.7595C76.2026 14.1919 71.9375 8.83219 66.6773 8.83219C61.417 8.83219 57.1519 14.1919 57.1519 20.7595Z" fill="white"/>
<path d="M347.177 32.6868C341.916 32.6868 337.651 27.3271 337.651 20.7595C337.651 14.1919 341.916 8.83222 347.177 8.83222C350.802 8.83222 353.859 11.3988 355.494 15.0978L364.735 12.1537C361.678 5.13325 354.996 0.226458 347.177 0.226458C336.443 0.226458 327.771 9.43613 327.771 20.835C327.771 32.2338 336.443 41.4435 347.177 41.4435C355.422 41.4435 362.46 35.9328 365.232 28.1574H354.641C352.935 30.7996 350.233 32.6868 347.177 32.6868Z" fill="white"/>
<path fill-rule="evenodd" clip-rule="evenodd" d="M245.81 39.6318C248.227 40.7641 250.928 41.2925 253.914 41.2925C258.108 41.2925 261.733 40.3112 264.648 38.1975C267.704 36.2347 269.908 33.7436 271.258 30.724L263.084 28.3084C262.444 29.9691 261.307 31.2525 259.601 32.2338C257.895 33.2152 256.117 33.7436 254.198 33.7436C252.99 33.7436 251.781 33.5171 250.644 33.0642C249.507 32.6113 248.511 31.9319 247.587 31.1015C246.663 30.2711 245.952 29.2143 245.384 28.0064C244.815 26.7986 244.46 25.4398 244.317 23.8545H273.178C273.32 23.4771 273.391 22.9487 273.391 22.3447C273.462 21.7408 273.462 21.1369 273.462 20.4575C273.462 17.8154 272.964 15.2488 272.111 12.7576C271.258 10.342 269.979 8.15279 268.273 6.26556C266.638 4.37833 264.576 2.94404 262.16 1.8117C259.743 0.679365 257.042 0.150941 253.985 0.150941C250.928 0.150941 248.156 0.679365 245.739 1.8117C243.251 2.94404 241.19 4.45382 239.484 6.34105C237.778 8.22828 236.498 10.4175 235.574 12.9086C234.65 15.3997 234.223 18.1174 234.223 20.9105C234.223 23.6281 234.721 26.1947 235.645 28.6858C236.569 31.1015 237.92 33.2907 239.626 35.1779C241.332 37.0651 243.393 38.5749 245.81 39.6318ZM260.525 10.191C262.373 12.0027 263.439 14.4184 263.652 17.3625H244.104C244.246 15.9282 244.531 14.5694 245.099 13.3615C245.668 12.1537 246.379 11.0969 247.232 10.2665C248.085 9.36061 249.08 8.68121 250.217 8.22828C251.355 7.69985 252.563 7.47339 253.843 7.47339C256.473 7.47339 258.676 8.37926 260.525 10.191Z" fill="white"/>
<path d="M384.638 9.05866V0.150941H375.113V12.0782L384.638 9.05866Z" fill="white"/>
<path d="M375.113 41.2925V19.9291L384.638 16.9095V41.2925H375.113Z" fill="white"/>
</svg>
